<svg xmlns="http://www.w3.org/2000/svg" xmlns:xlink="http://www.w3.org/1999/xlink" width="500" zoomAndPan="magnify" viewBox="0 0 375 374.999991" height="500" preserveAspectRatio="xMidYMid meet" version="1.0"><defs><g/><clipPath id="37a1f23c39"><path d="M 56.824219 151.464844 L 318.503906 151.464844 L 318.503906 223.464844 L 56.824219 223.464844 Z M 56.824219 151.464844 " clip-rule="nonzero"/></clipPath><clipPath id="2e7fca4c06"><path d="M 187.332031 158.238281 L 311.105469 158.238281 L 311.105469 216.761719 L 187.332031 216.761719 Z M 187.332031 158.238281 " clip-rule="nonzero"/></clipPath><clipPath id="e1cd310268"><path d="M 71.304688 199.085938 L 117.464844 199.085938 L 117.464844 204.21875 L 71.304688 204.21875 Z M 71.304688 199.085938 " clip-rule="nonzero"/></clipPath><clipPath id="83bcfd5671"><path d="M 123.472656 169.914062 L 169.628906 169.914062 L 169.628906 175.046875 L 123.472656 175.046875 Z M 123.472656 169.914062 " clip-rule="nonzero"/></clipPath></defs><g clip-path="url(#37a1f23c39)"><path stroke-linecap="butt" transform="matrix(0.75, 0, 0, 0.75, 56.823404, 151.465449)" fill="none" stroke-linejoin="miter" d="M 0.00108638 -0.000807338 L 348.907359 -0.000807338 L 348.907359 96.092949 L 0.00108638 96.092949 Z M 0.00108638 -0.000807338 " stroke="#000000" stroke-width="6" stroke-opacity="1" stroke-miterlimit="4"/></g><g clip-path="url(#2e7fca4c06)"><path fill="#000000" d="M 187.332031 158.238281 L 311.105469 158.238281 L 311.105469 216.761719 L 187.332031 216.761719 Z M 187.332031 158.238281 " fill-opacity="1" fill-rule="nonzero"/></g><g fill="#000000" fill-opacity="1"><g transform="translate(151.557636, 149.987335)"><g><path d="M 0.898438 -25.078125 C 2.878906 -27.089844 6.660156 -29.308594 9.359375 -29.519531 L 9.359375 0 L 13.710938 0 L 13.710938 -29.519531 C 16.410156 -29.308594 20.191406 -27.089844 22.171875 -25.078125 L 22.171875 -30 L 0.898438 -30 Z M 0.898438 -25.078125 "/></g></g></g><g fill="#000000" fill-opacity="1"><g transform="translate(174.627608, 149.987335)"><g><path d="M 2.101562 0 L 6.449219 0 L 6.449219 -14.519531 L 18.988281 -14.519531 L 18.988281 0 L 23.339844 0 L 23.339844 -30 L 18.988281 -30 L 18.988281 -15 L 6.449219 -15 L 6.449219 -30 L 2.101562 -30 Z M 2.101562 0 "/></g></g></g><g fill="#000000" fill-opacity="1"><g transform="translate(200.067582, 149.987335)"><g><path d="M 1.199219 -10.078125 C 1.199219 -2.429688 7.859375 0.300781 15.089844 0.300781 C 17.128906 0.300781 18.660156 0 20.25 -0.75 L 22.050781 -5.96875 C 20.011719 -4.261719 17.488281 -4.050781 14.96875 -4.050781 C 8.25 -4.050781 1.738281 -5.429688 1.738281 -9.839844 C 1.738281 -11.398438 2.910156 -12.328125 5.609375 -12.328125 C 9.539062 -12.328125 12.570312 -9.449219 17.011719 -9.601562 C 19.109375 -9.660156 21 -11.070312 21 -13.320312 C 21 -19.289062 5.308594 -17.21875 5.308594 -22.921875 C 5.308594 -25.019531 7.171875 -26.070312 11.550781 -26.070312 C 15.390625 -26.070312 19.378906 -25.050781 21.121094 -23.789062 L 22.351562 -28.289062 C 20.488281 -29.789062 15.328125 -30.300781 12.238281 -30.300781 C 3.601562 -30.300781 1.921875 -26.21875 1.921875 -24.390625 C 1.921875 -19.949219 6.238281 -19.140625 10.46875 -18.121094 C 13.679688 -17.339844 18.808594 -16.410156 18.808594 -14.640625 C 18.808594 -13.949219 18.179688 -13.679688 17.488281 -13.679688 C 14.699219 -13.679688 12.421875 -15.78125 8.429688 -15.78125 C 4.351562 -15.78125 1.199219 -13.890625 1.199219 -10.078125 Z M 1.199219 -10.078125 "/></g></g></g><g clip-path="url(#e1cd310268)"><path fill="#000000" d="M 71.304688 199.085938 L 117.464844 199.085938 L 117.464844 204.21875 L 71.304688 204.21875 Z M 71.304688 199.085938 " fill-opacity="1" fill-rule="nonzero"/></g><g clip-path="url(#83bcfd5671)"><path fill="#000000" d="M 123.472656 169.914062 L 169.628906 169.914062 L 169.628906 175.046875 L 123.472656 175.046875 Z M 123.472656 169.914062 " fill-opacity="1" fill-rule="nonzero"/></g><g fill="#000000" fill-opacity="1"><g transform="translate(68.912314, 189.91991)"><g><path d="M 2.503906 0 L 10.761719 0 C 17.347656 0 21.757812 -4.203125 21.757812 -10.433594 C 21.757812 -16.632812 17.347656 -20.867188 10.761719 -20.867188 L 2.503906 -20.867188 Z M 7.242188 -4.351562 L 7.242188 -16.511719 L 10.613281 -16.511719 C 14.367188 -16.511719 16.902344 -14.097656 16.902344 -10.433594 C 16.902344 -6.765625 14.367188 -4.351562 10.671875 -4.351562 Z M 7.242188 -4.351562 "/></g></g></g><g fill="#000000" fill-opacity="1"><g transform="translate(98.09349, 189.91991)"><g><path d="M 0.269531 0 L 5.335938 0 L 6.738281 -3.605469 L 15.023438 -3.605469 L 16.425781 0 L 21.492188 0 L 13.203125 -20.867188 L 8.554688 -20.867188 Z M 7.957031 -7.332031 L 10.878906 -14.964844 L 13.832031 -7.332031 Z M 7.957031 -7.332031 "/></g></g></g><g fill="#000000" fill-opacity="1"><g transform="translate(124.715826, 204.083601)"><g><path d="M 7.511719 0 L 12.25 0 L 12.25 -16.425781 L 18.867188 -16.425781 L 18.867188 -20.867188 L 0.894531 -20.867188 L 0.894531 -16.425781 L 7.511719 -16.425781 Z M 7.511719 0 "/></g></g></g><g fill="#000000" fill-opacity="1"><g transform="translate(150.648092, 204.083601)"><g><path d="M 0.269531 0 L 5.335938 0 L 6.738281 -3.605469 L 15.023438 -3.605469 L 16.425781 0 L 21.492188 0 L 13.203125 -20.867188 L 8.554688 -20.867188 Z M 7.957031 -7.332031 L 10.878906 -14.964844 L 13.832031 -7.332031 Z M 7.957031 -7.332031 "/></g></g></g><path stroke-linecap="butt" transform="matrix(0.75, 0, 0, 0.75, 187.332926, 176.249988)" fill="none" stroke-linejoin="miter" d="M 34.858185 7.317724 C 33.696726 7.317724 32.889434 6.765641 32.431101 5.661474 C 30.743601 5.661474 28.894642 6.072932 26.879017 6.895849 C 25.623809 7.411474 24.780059 7.885433 24.347767 8.317724 C 23.915476 8.750016 23.6811 9.093766 23.655059 9.338558 C 23.623809 9.583349 23.7436 9.791683 24.014434 9.963558 C 24.285267 10.130224 24.660267 10.291683 25.149851 10.442724 C 25.634226 10.598974 26.196726 10.750016 26.842559 10.901058 C 30.217559 11.687516 32.358184 12.234391 33.259226 12.536475 C 35.050893 13.135433 36.394643 13.791683 37.285268 14.505225 C 38.129018 15.218766 38.550893 16.192725 38.550893 17.421892 C 38.550893 18.442725 38.238393 19.3021 37.608185 20.005225 C 36.983185 20.70835 36.15506 21.338558 35.12381 21.890642 C 34.09256 22.437517 32.941518 22.9271 31.670684 23.354184 C 30.399851 23.786475 29.056101 24.151059 27.644642 24.453142 C 26.233184 24.760434 24.837351 25.010434 23.467559 25.20835 C 20.785267 25.58335 18.4936 25.77085 16.597767 25.77085 C 13.139433 25.77085 10.472766 25.359392 8.597766 24.526059 C 7.894641 24.20835 7.321724 23.416684 6.873808 22.151059 C 6.524849 21.109392 6.347766 20.250017 6.347766 19.578142 C 6.347766 18.901058 6.405058 18.531267 6.524849 18.45835 C 6.639433 18.390642 6.879016 18.385433 7.243599 18.453142 C 7.608183 18.515642 8.082141 18.625017 8.665475 18.776058 L 10.77485 19.338558 C 14.045683 20.161475 17.504017 20.567725 21.14985 20.567725 C 23.832142 20.567725 26.102976 20.328142 27.967559 19.848975 C 29.071726 19.557308 29.655059 19.229183 29.727976 18.8646 C 29.774851 18.546892 28.905059 18.156267 27.123809 17.687517 C 26.316517 17.463558 25.379017 17.229183 24.311309 16.984392 C 19.144642 15.729183 16.02485 14.921891 14.96235 14.557308 C 13.894642 14.192725 13.201933 13.875016 12.879016 13.593766 C 12.5561 13.312516 12.290475 13.000016 12.076933 12.661475 C 11.691516 11.9896 11.498808 11.354183 11.498808 10.755224 C 11.498808 10.151058 11.530058 9.682308 11.592558 9.354183 C 11.660266 9.026058 11.748808 8.723974 11.8686 8.442724 C 12.113391 7.864599 12.425891 7.473974 12.800891 7.265641 C 15.811308 5.578141 20.233184 4.093766 26.071726 2.817724 C 31.259226 1.666682 35.535268 1.093766 38.884226 1.093766 C 39.566518 1.093766 40.071727 1.208349 40.415477 1.442724 C 40.99881 1.880224 41.259227 2.343766 41.18631 2.833349 C 41.118602 3.328141 40.96756 3.781266 40.738393 4.197932 C 40.509227 4.614599 40.227977 4.989599 39.884227 5.322932 C 39.545685 5.656266 39.170685 5.947932 38.754018 6.197933 C 38.337351 6.453141 37.90506 6.661474 37.462351 6.822933 C 36.571726 7.151058 35.701935 7.317724 34.858185 7.317724 Z M 61.384228 12.95835 C 62.53527 12.95835 63.108186 13.359391 63.108186 14.156266 C 63.108186 14.916683 62.56652 15.901058 61.488395 17.109392 L 60.62902 18.005225 C 59.587353 19.067725 58.368603 20.119808 56.983186 21.151058 C 55.592561 22.182309 54.368603 22.994809 53.316519 23.593767 C 50.868602 24.953142 48.644644 25.630225 46.65506 25.630225 C 44.78006 25.630225 43.24881 25.067725 42.066518 23.942725 C 41.045685 22.973975 40.535268 21.947934 40.535268 20.869808 C 40.535268 19.791683 40.644643 18.718767 40.852977 17.651058 C 41.066518 16.58335 41.337352 15.541683 41.681102 14.52085 C 42.358185 12.447933 43.102977 10.687516 43.910268 9.234391 C 44.12381 8.833349 44.227977 8.578141 44.227977 8.458349 L 41.962352 8.458349 C 41.102977 8.458349 40.441518 8.260433 39.972768 7.859391 C 39.504018 7.463558 39.269643 7.010433 39.269643 6.505224 C 39.269643 6.005224 39.363393 5.635432 39.550893 5.401057 C 39.738393 5.166682 39.972768 4.994807 40.254018 4.890641 C 40.65506 4.723974 41.238393 4.645849 42.014435 4.645849 L 46.321727 4.661474 C 46.415477 4.625016 46.602977 4.375016 46.884227 3.906266 L 47.957144 2.062516 C 48.410269 1.239599 48.87381 0.635432 49.337352 0.250015 C 49.795686 -0.135401 50.342561 -0.32811 50.967561 -0.32811 C 51.597769 -0.32811 52.123811 -0.270818 52.550894 -0.156235 C 52.977977 -0.0364429 53.337352 0.10939 53.634227 0.286474 C 54.207144 0.661474 54.493603 1.067724 54.493603 1.515641 C 54.493603 1.703141 54.431103 1.953141 54.300894 2.270849 L 53.316519 4.661474 L 61.665478 4.645849 C 62.394645 4.645849 62.75402 5.020849 62.75402 5.770849 C 62.75402 7.552099 61.165478 8.442724 57.993603 8.442724 L 51.556102 8.458349 C 51.415477 8.531266 51.175894 8.869808 50.837352 9.479183 L 50.045686 10.937516 C 49.847769 11.3021 49.707144 11.578141 49.623811 11.765641 L 49.238394 12.625016 C 48.451935 14.39585 48.06131 15.671891 48.06131 16.45835 C 48.06131 17.2396 48.269644 17.89585 48.68631 18.4271 C 49.102977 18.953142 49.655061 19.218767 50.347769 19.218767 C 51.035269 19.218767 51.712352 19.08335 52.373811 18.812517 C 53.040477 18.541683 53.686311 18.213558 54.316519 17.828142 C 55.467561 17.1146 56.368603 16.453142 57.024853 15.843766 C 57.681103 15.234391 58.227978 14.77085 58.660269 14.453141 C 58.660269 14.453141 59.071728 14.166683 59.889436 13.593766 C 60.524853 13.171891 61.019645 12.95835 61.384228 12.95835 Z M 81.352979 16.156266 C 81.352979 17.343767 81.873813 17.932308 82.915479 17.932308 C 83.962354 17.932308 85.764438 16.932308 88.332146 14.9271 L 89.879022 13.661475 C 90.899855 12.817725 91.868605 12.39585 92.795688 12.39585 C 93.13423 12.39585 93.358188 12.4896 93.462355 12.666683 C 93.57173 12.848975 93.623813 13.078141 93.623813 13.354183 C 93.623813 13.630225 93.57173 13.916683 93.472772 14.213558 C 93.373813 14.515641 93.238397 14.828141 93.061313 15.156266 C 92.675897 15.89585 92.300897 16.468767 91.936313 16.880225 C 91.57173 17.286475 91.149855 17.713558 90.660272 18.151058 C 90.175897 18.593767 89.597771 19.08335 88.931105 19.630225 C 88.25923 20.1771 87.524855 20.729183 86.712355 21.3021 C 85.905063 21.869809 85.092563 22.385434 84.269646 22.854184 C 82.420688 23.932309 80.894646 24.473975 79.701938 24.473975 C 78.269646 24.473975 77.149854 23.968767 76.342562 22.95835 C 75.582146 22.02085 75.155062 20.77085 75.061312 19.197933 C 72.951937 21.3646 70.717562 23.036475 68.363395 24.20835 C 66.920687 24.921892 65.701937 25.281267 64.707145 25.281267 C 63.712353 25.281267 62.837353 25.161475 62.087353 24.921892 C 61.337353 24.682309 60.681103 24.317725 60.118603 23.838559 C 58.899853 22.817725 58.290478 21.401059 58.290478 19.58335 C 58.290478 16.984392 59.222769 14.473975 61.087353 12.062516 C 61.670686 11.312516 62.326936 10.656266 63.056103 10.093766 C 64.623812 9.109391 66.290478 8.614599 68.045687 8.614599 C 68.821728 8.614599 69.368603 8.859391 69.696729 9.338558 C 69.826937 9.526058 69.894645 9.770849 69.894645 10.067724 C 69.894645 10.364599 69.806104 10.713558 69.639437 11.104183 C 69.467562 11.494808 69.259228 11.906266 69.014437 12.33335 C 68.769645 12.760433 68.493603 13.203141 68.196728 13.661475 C 67.899853 14.119808 67.623812 14.562516 67.37902 15.000016 C 66.790478 16.031266 66.498812 16.77085 66.498812 17.223975 C 66.498812 17.671892 66.62902 18.005225 66.884228 18.213558 C 67.144645 18.4271 67.462353 18.531267 67.837353 18.531267 C 68.665478 18.531267 69.37902 18.328142 69.962354 17.9271 C 70.550895 17.52085 71.12902 17.0521 71.701937 16.526058 L 73.352979 14.911475 L 74.957146 13.255225 C 76.092562 12.098975 76.957146 11.375016 77.545687 11.088558 C 78.139437 10.802099 78.571729 10.692724 78.837354 10.760433 C 79.108187 10.833349 79.384229 10.958349 79.665479 11.140641 C 79.946729 11.322933 80.222771 11.541683 80.493604 11.796891 C 81.123813 12.406266 81.477979 12.95835 81.545688 13.453141 C 81.571729 13.765641 81.545688 14.2396 81.467563 14.8646 C 81.389438 15.494808 81.352979 15.921891 81.352979 16.156266 Z M 119.759232 12.010433 C 120.290482 12.010433 120.550899 12.281266 120.550899 12.817725 C 120.550899 13.671891 119.988398 14.880225 118.863398 16.437517 C 118.082148 17.531267 116.462357 19.041683 114.01444 20.973975 C 111.097773 23.260434 108.754023 24.401059 106.983189 24.401059 C 105.644648 24.401059 104.639439 23.838559 103.957147 22.713559 C 103.550897 22.036475 103.212356 21.036475 102.957147 19.723975 L 101.394647 20.848975 C 97.092564 23.828142 93.879022 25.317725 91.75923 25.317725 C 89.988397 25.317725 88.57173 24.671892 87.504021 23.380225 C 86.566521 22.223975 86.097771 20.83335 86.097771 19.218767 C 86.097771 17.437517 86.707146 16.031266 87.925896 15.000016 C 90.410272 12.911475 93.498813 11.192724 97.191522 9.848974 C 98.691522 9.296891 99.639439 9.020849 100.040481 9.020849 C 100.436314 9.020849 100.806106 9.088558 101.139439 9.223974 C 101.472772 9.359391 101.800897 9.531266 102.129022 9.739599 C 102.905064 10.270849 103.290481 10.781266 103.290481 11.27085 C 103.290481 11.671891 103.045689 11.9896 102.550897 12.2396 C 102.399856 12.317725 102.144647 12.432308 101.780064 12.572933 C 101.415481 12.713558 100.972772 12.906266 100.441522 13.151058 C 99.024855 13.817725 97.644647 14.630225 96.295689 15.578141 C 95.332147 16.39585 94.85298 17.0521 94.85298 17.536475 C 94.85298 18.026058 95.191522 18.265642 95.873814 18.265642 C 96.436314 18.265642 97.561314 17.77085 99.248814 16.77085 C 99.248814 16.77085 99.743605 16.468767 100.743606 15.859391 C 101.806106 15.192725 102.665481 14.58335 103.306106 14.031266 C 103.306106 14.031266 103.576939 13.151058 104.118606 11.39585 C 105.113398 8.255224 106.222773 5.656266 107.441523 3.609391 C 109.597773 -0.531235 111.76444 -2.598943 113.941523 -2.598943 C 114.738398 -2.598943 115.373815 -2.45311 115.842565 -2.156235 C 116.686315 -1.630193 117.10819 -1.04686 117.10819 -0.411443 C 117.10819 0.229182 116.988398 0.906265 116.754023 1.619807 C 116.519648 2.333349 116.212357 3.046891 115.832148 3.750016 C 115.45194 4.453141 115.01444 5.145849 114.524856 5.838557 L 111.519648 9.812516 C 111.01444 10.458349 110.566523 11.083349 110.181106 11.692725 C 109.504023 13.156266 109.160273 14.411475 109.160273 15.453141 C 109.160273 16.953142 109.707148 17.703142 110.79569 17.703142 C 111.415481 17.703142 112.535273 17.0521 114.155065 15.755225 L 116.227982 13.994808 C 117.20194 13.130225 118.160273 12.52085 119.113398 12.166683 C 119.379023 12.062516 119.597773 12.010433 119.759232 12.010433 Z M 131.962358 4.671891 C 131.618608 4.958349 131.254024 5.192724 130.852983 5.375016 C 130.457149 5.557307 130.009232 5.645849 129.519649 5.645849 C 129.024857 5.645849 128.550899 5.562516 128.092566 5.401057 C 127.634232 5.234391 127.238399 5.005224 126.899857 4.713557 C 126.160274 4.083349 125.790482 3.270849 125.790482 2.286474 C 125.790482 0.776057 127.056107 -0.348943 129.587357 -1.088526 C 130.441524 -1.343735 131.144649 -1.473943 131.696733 -1.473943 C 132.248816 -1.473943 132.660274 -1.411443 132.936316 -1.286443 C 133.212358 -1.166651 133.436316 -1.005193 133.613399 -0.807276 C 133.962358 -0.406235 134.139441 0.0000154317 134.139441 0.416682 C 134.139441 0.833349 134.092566 1.208349 133.993608 1.552099 C 133.889441 1.890641 133.748816 2.239599 133.561316 2.604182 C 133.373816 2.968766 133.144649 3.333349 132.873816 3.692724 C 132.602983 4.057307 132.300899 4.385432 131.962358 4.671891 Z M 127.530066 24.026059 C 126.639441 24.4896 125.774857 24.854184 124.931107 25.130225 C 124.087357 25.406267 123.259232 25.546892 122.441524 25.546892 C 121.629024 25.546892 120.785274 25.348975 119.910273 24.95835 C 119.040482 24.562517 118.259232 24.036475 117.582148 23.380225 C 116.071732 21.916684 115.316523 20.286475 115.316523 18.494808 C 115.316523 16.843767 115.806107 15.166683 116.790482 13.468766 C 117.691523 11.932308 118.842565 10.645849 120.238398 9.598974 C 121.629024 8.557308 122.925899 8.036474 124.118607 8.036474 C 125.832149 8.036474 126.743607 8.515641 126.863399 9.479183 C 126.899857 9.770849 126.915482 10.109391 126.915482 10.500016 C 126.915482 10.885433 126.826941 11.328141 126.644649 11.822933 C 126.462357 12.322933 126.227982 12.822933 125.941524 13.317725 C 125.655066 13.817725 125.337357 14.3021 124.993607 14.776058 C 124.644649 15.255225 124.316524 15.682308 123.998815 16.067725 C 123.38944 16.807308 122.899857 17.343767 122.540482 17.671892 C 122.540482 18.067725 122.837357 18.479183 123.436315 18.901058 C 123.998815 19.296892 124.477982 19.500017 124.868607 19.500017 C 125.259232 19.500017 125.722774 19.406267 126.259232 19.218767 C 126.790482 19.031267 127.342566 18.776058 127.910274 18.45835 C 128.477982 18.14585 129.056107 17.781267 129.649857 17.369808 C 130.243607 16.95835 130.821733 16.536475 131.399858 16.104183 L 134.613399 13.593766 C 135.89465 12.666683 136.931108 12.203141 137.727983 12.203141 C 138.040483 12.203141 138.285275 12.317725 138.45715 12.546891 C 138.623816 12.776058 138.712358 13.041683 138.712358 13.343766 C 138.712358 13.651058 138.556108 14.067725 138.254025 14.604183 C 137.946733 15.135433 137.530066 15.723975 136.998816 16.369808 C 136.462358 17.015642 135.837358 17.687517 135.123816 18.390642 C 134.410274 19.093767 133.634233 19.786475 132.806108 20.463558 C 131.972774 21.14585 131.108191 21.791684 130.212357 22.406267 C 129.316524 23.02085 128.420691 23.562517 127.530066 24.026059 Z M 153.264442 14.171891 C 153.264442 14.8021 153.806109 15.119808 154.884234 15.119808 C 155.681109 15.119808 156.722776 14.734391 158.009234 13.95835 L 159.415484 13.187516 C 159.852984 12.942725 160.227984 12.817725 160.550901 12.817725 C 160.873818 12.817725 161.129026 12.916683 161.316526 13.1146 C 161.504026 13.317725 161.597776 13.593766 161.597776 13.942725 C 161.597776 14.296891 161.477985 14.703141 161.24361 15.166683 C 161.009235 15.630225 160.691526 16.1146 160.280068 16.625017 C 159.868609 17.135433 159.389443 17.635433 158.837359 18.135433 C 158.285276 18.635433 157.696734 19.08335 157.061318 19.479183 C 155.655067 20.359392 154.347776 20.796892 153.144651 20.796892 C 151.863401 20.796892 150.847776 20.58335 150.08215 20.14585 C 149.847775 20.005225 149.618609 19.859392 149.399859 19.70835 C 148.14465 21.140642 146.326942 22.453142 143.946733 23.64585 C 141.415483 24.911475 139.20715 25.546892 137.321733 25.546892 C 135.342566 25.546892 133.774858 24.765642 132.629024 23.20835 C 131.701941 21.942725 131.238399 20.656267 131.238399 19.359392 C 131.238399 17.484392 132.243608 15.692725 134.243608 13.994808 C 135.722775 12.755225 137.149858 11.812516 138.524858 11.166683 C 139.905066 10.520849 141.149858 10.020849 142.259233 9.671891 C 144.618608 8.932308 146.7384 8.562516 148.623817 8.562516 C 149.467567 8.562516 150.222775 8.723974 150.884234 9.046891 C 151.545692 9.369808 152.035276 9.692724 152.352984 10.020849 C 153.102984 10.760433 153.477984 11.703141 153.477984 12.854183 C 153.477984 13.192725 153.441526 13.45835 153.368609 13.64585 C 153.300901 13.83335 153.264442 14.005225 153.264442 14.171891 Z M 138.884233 17.494808 L 138.868608 17.546892 L 138.868608 17.562517 C 138.868608 18.067725 138.977983 18.39585 139.201941 18.546892 C 139.743608 18.875017 140.311316 18.963558 140.910275 18.8021 C 141.504025 18.64585 142.071733 18.447933 142.6134 18.213558 C 143.946733 17.640642 145.155067 16.911475 146.233192 16.036475 C 146.045692 15.661475 145.951942 15.27085 145.951942 14.875016 C 145.951942 14.031266 146.321734 13.187516 147.061317 12.343766 C 146.123817 12.343766 144.858192 12.781266 143.264442 13.661475 C 141.504025 14.635433 140.186316 15.635433 139.306108 16.666683 C 139.024858 17.02085 138.884233 17.296892 138.884233 17.494808 Z M 138.884233 17.494808 " stroke="#282929" stroke-width="1.395" stroke-opacity="1" stroke-miterlimit="4"/><g fill="#ff89a9" fill-opacity="1"><g transform="translate(191.856363, 194.999987)"><g><path d="M 21.625 -13.265625 C 20.75 -13.265625 20.140625 -13.675781 19.796875 -14.5 C 18.535156 -14.5 17.148438 -14.191406 15.640625 -13.578125 C 14.691406 -13.191406 14.054688 -12.835938 13.734375 -12.515625 C 13.410156 -12.191406 13.238281 -11.9375 13.21875 -11.75 C 13.195312 -11.5625 13.285156 -11.40625 13.484375 -11.28125 C 13.691406 -11.15625 13.976562 -11.035156 14.34375 -10.921875 C 14.707031 -10.804688 15.128906 -10.691406 15.609375 -10.578125 C 18.140625 -9.984375 19.742188 -9.570312 20.421875 -9.34375 C 21.765625 -8.894531 22.769531 -8.40625 23.4375 -7.875 C 24.070312 -7.332031 24.390625 -6.601562 24.390625 -5.6875 C 24.390625 -4.914062 24.15625 -4.265625 23.6875 -3.734375 C 23.21875 -3.210938 22.59375 -2.742188 21.8125 -2.328125 C 21.039062 -1.921875 20.175781 -1.554688 19.21875 -1.234375 C 18.269531 -0.910156 17.265625 -0.632812 16.203125 -0.40625 C 15.148438 -0.175781 14.109375 0.0078125 13.078125 0.15625 C 11.066406 0.4375 9.347656 0.578125 7.921875 0.578125 C 5.328125 0.578125 3.328125 0.265625 1.921875 -0.359375 C 1.398438 -0.597656 0.972656 -1.191406 0.640625 -2.140625 C 0.367188 -2.921875 0.234375 -3.5625 0.234375 -4.0625 C 0.234375 -4.570312 0.273438 -4.851562 0.359375 -4.90625 C 0.453125 -4.957031 0.632812 -4.957031 0.90625 -4.90625 C 1.175781 -4.863281 1.535156 -4.785156 1.984375 -4.671875 L 3.5625 -4.25 C 6.007812 -3.632812 8.601562 -3.328125 11.34375 -3.328125 C 13.351562 -3.328125 15.054688 -3.503906 16.453125 -3.859375 C 17.273438 -4.078125 17.710938 -4.320312 17.765625 -4.59375 C 17.804688 -4.832031 17.160156 -5.128906 15.828125 -5.484375 C 15.210938 -5.648438 14.507812 -5.828125 13.71875 -6.015625 C 9.832031 -6.953125 7.488281 -7.554688 6.6875 -7.828125 C 5.894531 -8.097656 5.375 -8.335938 5.125 -8.546875 C 4.882812 -8.765625 4.6875 -9 4.53125 -9.25 C 4.238281 -9.75 4.09375 -10.222656 4.09375 -10.671875 C 4.09375 -11.128906 4.117188 -11.484375 4.171875 -11.734375 C 4.222656 -11.984375 4.289062 -12.210938 4.375 -12.421875 C 4.5625 -12.847656 4.796875 -13.140625 5.078125 -13.296875 C 7.335938 -14.566406 10.65625 -15.679688 15.03125 -16.640625 C 18.925781 -17.503906 22.128906 -17.9375 24.640625 -17.9375 C 25.148438 -17.9375 25.53125 -17.847656 25.78125 -17.671875 C 26.226562 -17.335938 26.421875 -16.988281 26.359375 -16.625 C 26.304688 -16.257812 26.195312 -15.921875 26.03125 -15.609375 C 25.863281 -15.296875 25.648438 -15.015625 25.390625 -14.765625 C 25.140625 -14.515625 24.859375 -14.289062 24.546875 -14.09375 C 24.234375 -13.90625 23.910156 -13.75 23.578125 -13.625 C 22.910156 -13.382812 22.257812 -13.265625 21.625 -13.265625 Z M 21.625 -13.265625 "/></g></g><g transform="translate(218.803627, 194.999987)"><g><path d="M 14.5625 -9.03125 C 15.425781 -9.03125 15.859375 -8.734375 15.859375 -8.140625 C 15.859375 -7.566406 15.453125 -6.828125 14.640625 -5.921875 L 14 -5.25 C 13.21875 -4.445312 12.304688 -3.660156 11.265625 -2.890625 C 10.222656 -2.117188 9.304688 -1.507812 8.515625 -1.0625 C 6.679688 -0.0390625 5.015625 0.46875 3.515625 0.46875 C 2.109375 0.46875 0.960938 0.046875 0.078125 -0.796875 C -0.679688 -1.523438 -1.0625 -2.289062 -1.0625 -3.09375 C -1.0625 -3.90625 -0.984375 -4.707031 -0.828125 -5.5 C -0.671875 -6.300781 -0.46875 -7.085938 -0.21875 -7.859375 C 0.289062 -9.410156 0.851562 -10.734375 1.46875 -11.828125 C 1.625 -12.128906 1.703125 -12.320312 1.703125 -12.40625 L 0 -12.40625 C -0.644531 -12.40625 -1.140625 -12.550781 -1.484375 -12.84375 C -1.835938 -13.144531 -2.015625 -13.484375 -2.015625 -13.859375 C -2.015625 -14.242188 -1.941406 -14.523438 -1.796875 -14.703125 C -1.660156 -14.878906 -1.488281 -15.003906 -1.28125 -15.078125 C -0.976562 -15.203125 -0.535156 -15.265625 0.046875 -15.265625 L 3.265625 -15.25 C 3.335938 -15.28125 3.476562 -15.472656 3.6875 -15.828125 L 4.5 -17.203125 C 4.84375 -17.816406 5.1875 -18.269531 5.53125 -18.5625 C 5.875 -18.851562 6.28125 -19 6.75 -19 C 7.226562 -19 7.625 -18.953125 7.9375 -18.859375 C 8.257812 -18.773438 8.53125 -18.664062 8.75 -18.53125 C 9.1875 -18.25 9.40625 -17.941406 9.40625 -17.609375 C 9.40625 -17.472656 9.351562 -17.285156 9.25 -17.046875 L 8.515625 -15.25 L 14.78125 -15.265625 C 15.320312 -15.265625 15.59375 -14.984375 15.59375 -14.421875 C 15.59375 -13.085938 14.40625 -12.421875 12.03125 -12.421875 L 7.203125 -12.40625 C 7.097656 -12.351562 6.914062 -12.097656 6.65625 -11.640625 L 6.0625 -10.546875 C 5.914062 -10.273438 5.8125 -10.066406 5.75 -9.921875 L 5.453125 -9.28125 C 4.867188 -7.957031 4.578125 -7 4.578125 -6.40625 C 4.578125 -5.820312 4.734375 -5.332031 5.046875 -4.9375 C 5.359375 -4.539062 5.769531 -4.34375 6.28125 -4.34375 C 6.800781 -4.34375 7.3125 -4.441406 7.8125 -4.640625 C 8.3125 -4.835938 8.796875 -5.082031 9.265625 -5.375 C 10.128906 -5.914062 10.804688 -6.410156 11.296875 -6.859375 C 11.785156 -7.316406 12.195312 -7.664062 12.53125 -7.90625 C 12.53125 -7.90625 12.835938 -8.125 13.453125 -8.5625 C 13.921875 -8.875 14.289062 -9.03125 14.5625 -9.03125 Z M 14.5625 -9.03125 "/></g></g><g transform="translate(232.250892, 194.999987)"><g><path d="M 16.09375 -6.625 C 16.09375 -5.738281 16.484375 -5.296875 17.265625 -5.296875 C 18.046875 -5.296875 19.398438 -6.046875 21.328125 -7.546875 L 22.484375 -8.5 C 23.253906 -9.132812 23.988281 -9.453125 24.6875 -9.453125 C 24.9375 -9.453125 25.097656 -9.382812 25.171875 -9.25 C 25.253906 -9.113281 25.296875 -8.941406 25.296875 -8.734375 C 25.296875 -8.523438 25.257812 -8.304688 25.1875 -8.078125 C 25.113281 -7.859375 25.007812 -7.628906 24.875 -7.390625 C 24.582031 -6.828125 24.300781 -6.390625 24.03125 -6.078125 C 23.757812 -5.773438 23.441406 -5.457031 23.078125 -5.125 C 22.710938 -4.800781 22.28125 -4.4375 21.78125 -4.03125 C 21.28125 -3.625 20.722656 -3.207031 20.109375 -2.78125 C 19.503906 -2.351562 18.894531 -1.960938 18.28125 -1.609375 C 16.894531 -0.796875 15.753906 -0.390625 14.859375 -0.390625 C 13.785156 -0.390625 12.945312 -0.769531 12.34375 -1.53125 C 11.769531 -2.226562 11.445312 -3.164062 11.375 -4.34375 C 9.789062 -2.71875 8.117188 -1.46875 6.359375 -0.59375 C 5.273438 -0.0507812 4.359375 0.21875 3.609375 0.21875 C 2.859375 0.21875 2.203125 0.128906 1.640625 -0.046875 C 1.078125 -0.234375 0.585938 -0.507812 0.171875 -0.875 C -0.742188 -1.632812 -1.203125 -2.695312 -1.203125 -4.0625 C -1.203125 -6.007812 -0.503906 -7.890625 0.890625 -9.703125 C 1.335938 -10.265625 1.832031 -10.757812 2.375 -11.1875 C 3.550781 -11.914062 4.800781 -12.28125 6.125 -12.28125 C 6.695312 -12.28125 7.109375 -12.101562 7.359375 -11.75 C 7.453125 -11.601562 7.5 -11.414062 7.5 -11.1875 C 7.5 -10.96875 7.4375 -10.710938 7.3125 -10.421875 C 7.1875 -10.128906 7.03125 -9.820312 6.84375 -9.5 C 6.65625 -9.175781 6.445312 -8.84375 6.21875 -8.5 C 6 -8.15625 5.796875 -7.820312 5.609375 -7.5 C 5.171875 -6.726562 4.953125 -6.171875 4.953125 -5.828125 C 4.953125 -5.492188 5.046875 -5.25 5.234375 -5.09375 C 5.429688 -4.9375 5.671875 -4.859375 5.953125 -4.859375 C 6.578125 -4.859375 7.109375 -5.007812 7.546875 -5.3125 C 7.992188 -5.613281 8.429688 -5.960938 8.859375 -6.359375 L 10.09375 -7.5625 L 11.296875 -8.8125 C 12.148438 -9.675781 12.796875 -10.21875 13.234375 -10.4375 C 13.679688 -10.65625 14.003906 -10.734375 14.203125 -10.671875 C 14.410156 -10.617188 14.617188 -10.523438 14.828125 -10.390625 C 15.035156 -10.253906 15.242188 -10.09375 15.453125 -9.90625 C 15.921875 -9.445312 16.1875 -9.03125 16.25 -8.65625 C 16.257812 -8.425781 16.234375 -8.070312 16.171875 -7.59375 C 16.117188 -7.125 16.09375 -6.800781 16.09375 -6.625 Z M 16.09375 -6.625 "/></g></g><g transform="translate(254.676183, 194.999987)"><g><path d="M 22.484375 -9.75 C 22.878906 -9.75 23.078125 -9.546875 23.078125 -9.140625 C 23.078125 -8.492188 22.65625 -7.585938 21.8125 -6.421875 C 21.21875 -5.597656 20.003906 -4.460938 18.171875 -3.015625 C 15.984375 -1.304688 14.222656 -0.453125 12.890625 -0.453125 C 11.890625 -0.453125 11.132812 -0.875 10.625 -1.71875 C 10.320312 -2.226562 10.070312 -2.972656 9.875 -3.953125 L 8.703125 -3.109375 C 5.472656 -0.878906 3.066406 0.234375 1.484375 0.234375 C 0.148438 0.234375 -0.914062 -0.25 -1.71875 -1.21875 C -2.414062 -2.082031 -2.765625 -3.125 -2.765625 -4.34375 C -2.765625 -5.675781 -2.304688 -6.726562 -1.390625 -7.5 C 0.460938 -9.0625 2.773438 -10.347656 5.546875 -11.359375 C 6.671875 -11.773438 7.382812 -11.984375 7.6875 -11.984375 C 7.988281 -11.984375 8.265625 -11.929688 8.515625 -11.828125 C 8.765625 -11.734375 9.007812 -11.601562 9.25 -11.4375 C 9.832031 -11.039062 10.125 -10.660156 10.125 -10.296875 C 10.125 -9.992188 9.941406 -9.753906 9.578125 -9.578125 C 9.460938 -9.515625 9.265625 -9.425781 8.984375 -9.3125 C 8.710938 -9.207031 8.378906 -9.066406 7.984375 -8.890625 C 6.921875 -8.390625 5.882812 -7.78125 4.875 -7.0625 C 4.15625 -6.445312 3.796875 -5.957031 3.796875 -5.59375 C 3.796875 -5.226562 4.050781 -5.046875 4.5625 -5.046875 C 4.976562 -5.046875 5.820312 -5.421875 7.09375 -6.171875 C 7.09375 -6.171875 7.46875 -6.398438 8.21875 -6.859375 C 9.007812 -7.359375 9.648438 -7.816406 10.140625 -8.234375 C 10.140625 -8.234375 10.34375 -8.890625 10.75 -10.203125 C 11.488281 -12.554688 12.316406 -14.503906 13.234375 -16.046875 C 14.847656 -19.148438 16.472656 -20.703125 18.109375 -20.703125 C 18.710938 -20.703125 19.1875 -20.59375 19.53125 -20.375 C 20.164062 -19.976562 20.484375 -19.539062 20.484375 -19.0625 C 20.484375 -18.582031 20.394531 -18.070312 20.21875 -17.53125 C 20.039062 -17 19.8125 -16.46875 19.53125 -15.9375 C 19.25 -15.40625 18.921875 -14.882812 18.546875 -14.375 L 16.296875 -11.390625 C 15.921875 -10.910156 15.585938 -10.441406 15.296875 -9.984375 C 14.785156 -8.878906 14.53125 -7.9375 14.53125 -7.15625 C 14.53125 -6.03125 14.9375 -5.46875 15.75 -5.46875 C 16.21875 -5.46875 17.054688 -5.957031 18.265625 -6.9375 L 19.828125 -8.25 C 20.554688 -8.90625 21.273438 -9.363281 21.984375 -9.625 C 22.191406 -9.707031 22.359375 -9.75 22.484375 -9.75 Z M 22.484375 -9.75 "/></g></g><g transform="translate(274.847081, 194.999987)"><g><path d="M 11.453125 -15.234375 C 11.203125 -15.023438 10.925781 -14.851562 10.625 -14.71875 C 10.320312 -14.582031 9.988281 -14.515625 9.625 -14.515625 C 9.257812 -14.515625 8.90625 -14.578125 8.5625 -14.703125 C 8.21875 -14.828125 7.914062 -15 7.65625 -15.21875 C 7.101562 -15.6875 6.828125 -16.289062 6.828125 -17.03125 C 6.828125 -18.164062 7.773438 -19.007812 9.671875 -19.5625 C 10.316406 -19.757812 10.84375 -19.859375 11.25 -19.859375 C 11.664062 -19.859375 11.976562 -19.8125 12.1875 -19.71875 C 12.394531 -19.625 12.566406 -19.503906 12.703125 -19.359375 C 12.960938 -19.054688 13.09375 -18.75 13.09375 -18.4375 C 13.09375 -18.125 13.054688 -17.835938 12.984375 -17.578125 C 12.910156 -17.328125 12.800781 -17.066406 12.65625 -16.796875 C 12.519531 -16.523438 12.347656 -16.25 12.140625 -15.96875 C 11.941406 -15.695312 11.710938 -15.453125 11.453125 -15.234375 Z M 8.125 -0.734375 C 7.457031 -0.390625 6.804688 -0.113281 6.171875 0.09375 C 5.546875 0.300781 4.925781 0.40625 4.3125 0.40625 C 3.707031 0.40625 3.078125 0.257812 2.421875 -0.03125 C 1.765625 -0.320312 1.179688 -0.71875 0.671875 -1.21875 C -0.460938 -2.3125 -1.03125 -3.53125 -1.03125 -4.875 C -1.03125 -6.113281 -0.660156 -7.375 0.078125 -8.65625 C 0.753906 -9.800781 1.613281 -10.765625 2.65625 -11.546875 C 3.707031 -12.328125 4.679688 -12.71875 5.578125 -12.71875 C 6.859375 -12.71875 7.546875 -12.359375 7.640625 -11.640625 C 7.660156 -11.421875 7.671875 -11.164062 7.671875 -10.875 C 7.671875 -10.582031 7.601562 -10.25 7.46875 -9.875 C 7.332031 -9.507812 7.15625 -9.140625 6.9375 -8.765625 C 6.726562 -8.390625 6.492188 -8.019531 6.234375 -7.65625 C 5.972656 -7.300781 5.722656 -6.984375 5.484375 -6.703125 C 5.023438 -6.140625 4.660156 -5.738281 4.390625 -5.5 C 4.390625 -5.195312 4.613281 -4.890625 5.0625 -4.578125 C 5.488281 -4.273438 5.847656 -4.125 6.140625 -4.125 C 6.429688 -4.125 6.773438 -4.191406 7.171875 -4.328125 C 7.578125 -4.472656 7.992188 -4.664062 8.421875 -4.90625 C 8.847656 -5.144531 9.28125 -5.414062 9.71875 -5.71875 C 10.164062 -6.03125 10.601562 -6.347656 11.03125 -6.671875 L 13.453125 -8.5625 C 14.410156 -9.25 15.1875 -9.59375 15.78125 -9.59375 C 16.019531 -9.59375 16.203125 -9.503906 16.328125 -9.328125 C 16.453125 -9.160156 16.515625 -8.960938 16.515625 -8.734375 C 16.515625 -8.503906 16.398438 -8.191406 16.171875 -7.796875 C 15.941406 -7.398438 15.628906 -6.957031 15.234375 -6.46875 C 14.835938 -5.988281 14.367188 -5.484375 13.828125 -4.953125 C 13.296875 -4.429688 12.71875 -3.914062 12.09375 -3.40625 C 11.46875 -2.894531 10.816406 -2.40625 10.140625 -1.9375 C 9.472656 -1.476562 8.800781 -1.078125 8.125 -0.734375 Z M 8.125 -0.734375 "/></g></g><g transform="translate(288.307529, 194.999987)"><g><path d="M 13.96875 -8.125 C 13.96875 -7.644531 14.375 -7.40625 15.1875 -7.40625 C 15.78125 -7.40625 16.5625 -7.695312 17.53125 -8.28125 L 18.59375 -8.859375 C 18.914062 -9.046875 19.195312 -9.140625 19.4375 -9.140625 C 19.675781 -9.140625 19.863281 -9.0625 20 -8.90625 C 20.144531 -8.757812 20.21875 -8.550781 20.21875 -8.28125 C 20.21875 -8.019531 20.128906 -7.71875 19.953125 -7.375 C 19.785156 -7.03125 19.546875 -6.664062 19.234375 -6.28125 C 18.929688 -5.894531 18.570312 -5.515625 18.15625 -5.140625 C 17.738281 -4.773438 17.296875 -4.441406 16.828125 -4.140625 C 15.765625 -3.484375 14.78125 -3.15625 13.875 -3.15625 C 12.925781 -3.15625 12.164062 -3.316406 11.59375 -3.640625 C 11.414062 -3.742188 11.242188 -3.851562 11.078125 -3.96875 C 10.128906 -2.894531 8.765625 -1.910156 6.984375 -1.015625 C 5.085938 -0.0664062 3.429688 0.40625 2.015625 0.40625 C 0.523438 0.40625 -0.644531 -0.175781 -1.5 -1.34375 C -2.195312 -2.289062 -2.546875 -3.253906 -2.546875 -4.234375 C -2.546875 -5.640625 -1.796875 -6.976562 -0.296875 -8.25 C 0.816406 -9.1875 1.890625 -9.894531 2.921875 -10.375 C 3.953125 -10.851562 4.882812 -11.226562 5.71875 -11.5 C 7.488281 -12.050781 9.082031 -12.328125 10.5 -12.328125 C 11.125 -12.328125 11.6875 -12.207031 12.1875 -11.96875 C 12.6875 -11.726562 13.054688 -11.484375 13.296875 -11.234375 C 13.859375 -10.679688 14.140625 -9.972656 14.140625 -9.109375 C 14.140625 -8.859375 14.109375 -8.660156 14.046875 -8.515625 C 13.992188 -8.378906 13.96875 -8.25 13.96875 -8.125 Z M 3.1875 -5.625 L 3.171875 -5.59375 L 3.171875 -5.578125 C 3.171875 -5.203125 3.253906 -4.957031 3.421875 -4.84375 C 3.828125 -4.59375 4.253906 -4.523438 4.703125 -4.640625 C 5.148438 -4.765625 5.578125 -4.914062 5.984375 -5.09375 C 6.984375 -5.519531 7.890625 -6.0625 8.703125 -6.71875 C 8.554688 -7 8.484375 -7.289062 8.484375 -7.59375 C 8.484375 -8.226562 8.765625 -8.863281 9.328125 -9.5 C 8.617188 -9.5 7.664062 -9.164062 6.46875 -8.5 C 5.15625 -7.769531 4.164062 -7.019531 3.5 -6.25 C 3.289062 -5.988281 3.1875 -5.78125 3.1875 -5.625 Z M 3.1875 -5.625 "/></g></g></g></svg>